# Blender 5.0.0
# www.blender.org
mtllib StreetPiece2.mtl
o street2-col
v -15.000445 -0.175773 27.968365
v -15.000445 0.175773 27.968365
v -15.000445 -0.175773 -27.968365
v -15.000445 0.175773 -27.968365
v 15.000445 -0.175773 27.968365
v 15.000445 0.175773 27.968365
v 15.000445 -0.175773 -27.968365
v 15.000445 0.175773 -27.968365
v 14.995961 -0.242924 0.000000
v 14.995961 -0.242924 -5.716653
v 20.969292 -0.242924 0.000000
v 20.969292 -0.242924 -5.716653
v 15.053331 0.441153 -0.054905
v 14.995961 0.364988 0.000000
v 15.053331 0.441153 -5.661749
v 14.995961 0.364988 -5.716653
v 20.911922 0.441153 -0.054905
v 20.969292 0.364988 0.000000
v 20.911922 0.441153 -5.661749
v 20.969292 0.364988 -5.716653
v 14.995961 -0.242924 -5.716653
v 14.995961 -0.242924 -11.433307
v 20.969292 -0.242924 -5.716653
v 20.969292 -0.242924 -11.433307
v 15.053331 0.441153 -5.771558
v 14.995961 0.364988 -5.716653
v 15.053331 0.441153 -11.378402
v 14.995961 0.364988 -11.433307
v 20.911922 0.441153 -5.771558
v 20.969292 0.364988 -5.716653
v 20.911922 0.441153 -11.378402
v 20.969292 0.364988 -11.433307
v 14.995961 -0.242924 -11.433307
v 14.995961 -0.242924 -17.149960
v 20.969292 -0.242924 -11.433307
v 20.969292 -0.242924 -17.149960
v 15.053331 0.441153 -11.488212
v 14.995961 0.364988 -11.433307
v 15.053331 0.441153 -17.095057
v 14.995961 0.364988 -17.149960
v 20.911922 0.441153 -11.488212
v 20.969292 0.364988 -11.433307
v 20.911922 0.441153 -17.095057
v 20.969292 0.364988 -17.149960
v 14.995961 -0.242924 -17.149960
v 14.995961 -0.242924 -22.866613
v 20.969292 -0.242924 -17.149960
v 20.969292 -0.242924 -22.866613
v 15.053331 0.441153 -17.204866
v 14.995961 0.364988 -17.149960
v 15.053331 0.441153 -22.811708
v 14.995961 0.364988 -22.866613
v 20.911922 0.441153 -17.204866
v 20.969292 0.364988 -17.149960
v 20.911922 0.441153 -22.811708
v 20.969292 0.364988 -22.866613
v 14.995961 -0.242924 -22.866613
v 14.995961 -0.242924 -28.583267
v 20.969292 -0.242924 -22.866613
v 20.969292 -0.242924 -28.583267
v 15.053331 0.441153 -22.921520
v 14.995961 0.364988 -22.866613
v 15.053331 0.441153 -28.528362
v 14.995961 0.364988 -28.583267
v 20.911922 0.441153 -22.921520
v 20.969292 0.364988 -22.866613
v 20.911922 0.441153 -28.528362
v 20.969292 0.364988 -28.583267
v 14.995961 -0.242924 28.583267
v 14.995961 -0.242924 22.866613
v 20.969292 -0.242924 28.583267
v 20.969292 -0.242924 22.866613
v 15.053331 0.441153 28.528362
v 14.995961 0.364988 28.583267
v 15.053331 0.441153 22.921520
v 14.995961 0.364988 22.866613
v 20.911922 0.441153 28.528362
v 20.969292 0.364988 28.583267
v 20.911922 0.441153 22.921520
v 20.969292 0.364988 22.866613
v 14.995961 -0.242924 22.866613
v 14.995961 -0.242924 17.149960
v 20.969292 -0.242924 22.866613
v 20.969292 -0.242924 17.149960
v 15.053331 0.441153 22.811708
v 14.995961 0.364988 22.866613
v 15.053331 0.441153 17.204866
v 14.995961 0.364988 17.149960
v 20.911922 0.441153 22.811708
v 20.969292 0.364988 22.866613
v 20.911922 0.441153 17.204866
v 20.969292 0.364988 17.149960
v 14.995961 -0.242924 17.149960
v 14.995961 -0.242924 11.433307
v 20.969292 -0.242924 17.149960
v 20.969292 -0.242924 11.433307
v 15.053331 0.441153 17.095057
v 14.995961 0.364988 17.149960
v 15.053331 0.441153 11.488212
v 14.995961 0.364988 11.433307
v 20.911922 0.441153 17.095057
v 20.969292 0.364988 17.149960
v 20.911922 0.441153 11.488212
v 20.969292 0.364988 11.433307
v 14.995961 -0.242924 11.433307
v 14.995961 -0.242924 5.716653
v 20.969292 -0.242924 11.433307
v 20.969292 -0.242924 5.716653
v 15.053331 0.441153 11.378402
v 14.995961 0.364988 11.433307
v 15.053331 0.441153 5.771559
v 14.995961 0.364988 5.716653
v 20.911922 0.441153 11.378402
v 20.969292 0.364988 11.433307
v 20.911922 0.441153 5.771559
v 20.969292 0.364988 5.716653
v 14.995961 -0.242924 5.716653
v 14.995961 -0.242924 0.000000
v 20.969292 -0.242924 5.716653
v 20.969292 -0.242924 0.000000
v 15.053331 0.441153 5.661748
v 14.995961 0.364988 5.716653
v 15.053331 0.441153 0.054905
v 14.995961 0.364988 0.000000
v 20.911922 0.441153 5.661748
v 20.969292 0.364988 5.716653
v 20.911922 0.441153 0.054905
v 20.969292 0.364988 0.000000
v -20.969263 -0.242924 0.000000
v -20.969263 -0.242924 -5.716653
v -14.995933 -0.242924 0.000000
v -14.995933 -0.242924 -5.716653
v -20.911894 0.441153 -0.054905
v -20.969263 0.364988 0.000000
v -20.911894 0.441153 -5.661749
v -20.969263 0.364988 -5.716653
v -15.053303 0.441153 -0.054905
v -14.995933 0.364988 0.000000
v -15.053303 0.441153 -5.661749
v -14.995933 0.364988 -5.716653
v -20.969263 -0.242924 -5.716653
v -20.969263 -0.242924 -11.433307
v -14.995933 -0.242924 -5.716653
v -14.995933 -0.242924 -11.433307
v -20.911894 0.441153 -5.771558
v -20.969263 0.364988 -5.716653
v -20.911894 0.441153 -11.378402
v -20.969263 0.364988 -11.433307
v -15.053303 0.441153 -5.771558
v -14.995933 0.364988 -5.716653
v -15.053303 0.441153 -11.378402
v -14.995933 0.364988 -11.433307
v -20.969263 -0.242924 -11.433307
v -20.969263 -0.242924 -17.149960
v -14.995933 -0.242924 -11.433307
v -14.995933 -0.242924 -17.149960
v -20.911894 0.441153 -11.488212
v -20.969263 0.364988 -11.433307
v -20.911894 0.441153 -17.095057
v -20.969263 0.364988 -17.149960
v -15.053303 0.441153 -11.488212
v -14.995933 0.364988 -11.433307
v -15.053303 0.441153 -17.095057
v -14.995933 0.364988 -17.149960
v -20.969263 -0.242924 -17.149960
v -20.969263 -0.242924 -22.866613
v -14.995933 -0.242924 -17.149960
v -14.995933 -0.242924 -22.866613
v -20.911894 0.441153 -17.204866
v -20.969263 0.364988 -17.149960
v -20.911894 0.441153 -22.811708
v -20.969263 0.364988 -22.866613
v -15.053303 0.441153 -17.204866
v -14.995933 0.364988 -17.149960
v -15.053303 0.441153 -22.811708
v -14.995933 0.364988 -22.866613
v -20.969263 -0.242924 -22.866613
v -20.969263 -0.242924 -28.583267
v -14.995933 -0.242924 -22.866613
v -14.995933 -0.242924 -28.583267
v -20.911894 0.441153 -22.921520
v -20.969263 0.364988 -22.866613
v -20.911894 0.441153 -28.528362
v -20.969263 0.364988 -28.583267
v -15.053303 0.441153 -22.921520
v -14.995933 0.364988 -22.866613
v -15.053303 0.441153 -28.528362
v -14.995933 0.364988 -28.583267
v -20.969263 -0.242924 28.583267
v -20.969263 -0.242924 22.866613
v -14.995933 -0.242924 28.583267
v -14.995933 -0.242924 22.866613
v -20.911894 0.441153 28.528362
v -20.969263 0.364988 28.583267
v -20.911894 0.441153 22.921520
v -20.969263 0.364988 22.866613
v -15.053303 0.441153 28.528362
v -14.995933 0.364988 28.583267
v -15.053303 0.441153 22.921520
v -14.995933 0.364988 22.866613
v -20.969263 -0.242924 22.866613
v -20.969263 -0.242924 17.149960
v -14.995933 -0.242924 22.866613
v -14.995933 -0.242924 17.149960
v -20.911894 0.441153 22.811708
v -20.969263 0.364988 22.866613
v -20.911894 0.441153 17.204866
v -20.969263 0.364988 17.149960
v -15.053303 0.441153 22.811708
v -14.995933 0.364988 22.866613
v -15.053303 0.441153 17.204866
v -14.995933 0.364988 17.149960
v -20.969263 -0.242924 17.149960
v -20.969263 -0.242924 11.433307
v -14.995933 -0.242924 17.149960
v -14.995933 -0.242924 11.433307
v -20.911894 0.441153 17.095057
v -20.969263 0.364988 17.149960
v -20.911894 0.441153 11.488212
v -20.969263 0.364988 11.433307
v -15.053303 0.441153 17.095057
v -14.995933 0.364988 17.149960
v -15.053303 0.441153 11.488212
v -14.995933 0.364988 11.433307
v -20.969263 -0.242924 11.433307
v -20.969263 -0.242924 5.716653
v -14.995933 -0.242924 11.433307
v -14.995933 -0.242924 5.716653
v -20.911894 0.441153 11.378402
v -20.969263 0.364988 11.433307
v -20.911894 0.441153 5.771559
v -20.969263 0.364988 5.716653
v -15.053303 0.441153 11.378402
v -14.995933 0.364988 11.433307
v -15.053303 0.441153 5.771559
v -14.995933 0.364988 5.716653
v -20.969263 -0.242924 5.716653
v -20.969263 -0.242924 0.000000
v -14.995933 -0.242924 5.716653
v -14.995933 -0.242924 0.000000
v -20.911894 0.441153 5.661748
v -20.969263 0.364988 5.716653
v -20.911894 0.441153 0.054905
v -20.969263 0.364988 0.000000
v -15.053303 0.441153 5.661748
v -14.995933 0.364988 5.716653
v -15.053303 0.441153 0.054905
v -14.995933 0.364988 0.000000
vn -1.0000 -0.0000 -0.0000
vn -0.0000 -0.0000 -1.0000
vn 1.0000 -0.0000 -0.0000
vn -0.0000 -0.0000 1.0000
vn -0.0000 -1.0000 -0.0000
vn -0.0000 1.0000 -0.0000
vn -0.7988 0.6016 -0.0000
vn -0.0000 0.5848 -0.8112
vn 0.7988 0.6017 -0.0000
vn -0.0000 0.5848 0.8112
vn -0.7988 0.6017 -0.0000
vn 0.7988 0.6016 -0.0000
vt 0.375000 0.000000
vt 0.625000 0.000000
vt 0.625000 0.250000
vt 0.375000 0.250000
vt 0.625000 0.500000
vt 0.375000 0.500000
vt 0.625000 0.750000
vt 0.375000 0.750000
vt 0.625000 1.000000
vt 0.375000 1.000000
vt 0.125000 0.500000
vt 0.125000 0.750000
vt 0.875000 0.500000
vt 0.875000 0.750000
vt 0.872599 0.747599
vt 0.872599 0.502401
vt 0.627401 0.502401
vt 0.623199 0.500000
vt 0.627401 0.747599
vt 0.623199 0.750000
vt 0.622599 1.000000
vt 0.622599 0.000000
vt 0.622599 0.250000
s 0
g street2-col_Pavement
usemtl Pavement
f 1/1/1 2/2/1 4/3/1 3/4/1
f 3/4/2 4/3/2 8/5/2 7/6/2
f 7/6/3 8/5/3 6/7/3 5/8/3
f 5/8/4 6/7/4 2/9/4 1/10/4
f 3/11/5 7/6/5 5/8/5 1/12/5
f 8/5/6 4/13/6 2/14/6 6/7/6
g street2-col_Concrete1
usemtl Concrete1
f 10/11/5 12/6/5 11/8/5 9/12/5
f 13/15/7 15/16/7 16/13/7 14/14/7
f 15/16/8 19/17/8 20/18/8 16/13/8
f 19/17/9 17/19/9 18/20/9 20/18/9
f 17/19/10 13/15/10 14/14/10 18/20/10
f 11/8/4 18/20/4 14/21/4 9/10/4
f 9/1/1 14/22/1 16/23/1 10/4/1
f 19/17/6 15/16/6 13/15/6 17/19/6
f 10/4/2 16/23/2 20/18/2 12/6/2
f 12/6/3 20/18/3 18/20/3 11/8/3
f 22/11/5 24/6/5 23/8/5 21/12/5
f 25/15/7 27/16/7 28/13/7 26/14/7
f 27/16/8 31/17/8 32/18/8 28/13/8
f 31/17/9 29/19/9 30/20/9 32/18/9
f 29/19/10 25/15/10 26/14/10 30/20/10
f 23/8/4 30/20/4 26/21/4 21/10/4
f 21/1/1 26/22/1 28/23/1 22/4/1
f 31/17/6 27/16/6 25/15/6 29/19/6
f 22/4/2 28/23/2 32/18/2 24/6/2
f 24/6/3 32/18/3 30/20/3 23/8/3
f 34/11/5 36/6/5 35/8/5 33/12/5
f 37/15/7 39/16/7 40/13/7 38/14/7
f 39/16/8 43/17/8 44/18/8 40/13/8
f 43/17/9 41/19/9 42/20/9 44/18/9
f 41/19/10 37/15/10 38/14/10 42/20/10
f 35/8/4 42/20/4 38/21/4 33/10/4
f 33/1/1 38/22/1 40/23/1 34/4/1
f 43/17/6 39/16/6 37/15/6 41/19/6
f 34/4/2 40/23/2 44/18/2 36/6/2
f 36/6/3 44/18/3 42/20/3 35/8/3
f 46/11/5 48/6/5 47/8/5 45/12/5
f 49/15/7 51/16/7 52/13/7 50/14/7
f 51/16/8 55/17/8 56/18/8 52/13/8
f 55/17/9 53/19/9 54/20/9 56/18/9
f 53/19/10 49/15/10 50/14/10 54/20/10
f 47/8/4 54/20/4 50/21/4 45/10/4
f 45/1/1 50/22/1 52/23/1 46/4/1
f 55/17/6 51/16/6 49/15/6 53/19/6
f 46/4/2 52/23/2 56/18/2 48/6/2
f 48/6/3 56/18/3 54/20/3 47/8/3
f 58/11/5 60/6/5 59/8/5 57/12/5
f 61/15/7 63/16/7 64/13/7 62/14/7
f 63/16/8 67/17/8 68/18/8 64/13/8
f 67/17/9 65/19/9 66/20/9 68/18/9
f 65/19/10 61/15/10 62/14/10 66/20/10
f 59/8/4 66/20/4 62/21/4 57/10/4
f 57/1/1 62/22/1 64/23/1 58/4/1
f 67/17/6 63/16/6 61/15/6 65/19/6
f 58/4/2 64/23/2 68/18/2 60/6/2
f 60/6/3 68/18/3 66/20/3 59/8/3
f 70/11/5 72/6/5 71/8/5 69/12/5
f 73/15/7 75/16/7 76/13/7 74/14/7
f 75/16/8 79/17/8 80/18/8 76/13/8
f 79/17/9 77/19/9 78/20/9 80/18/9
f 77/19/10 73/15/10 74/14/10 78/20/10
f 71/8/4 78/20/4 74/21/4 69/10/4
f 69/1/1 74/22/1 76/23/1 70/4/1
f 79/17/6 75/16/6 73/15/6 77/19/6
f 70/4/2 76/23/2 80/18/2 72/6/2
f 72/6/3 80/18/3 78/20/3 71/8/3
f 82/11/5 84/6/5 83/8/5 81/12/5
f 85/15/7 87/16/7 88/13/7 86/14/7
f 87/16/8 91/17/8 92/18/8 88/13/8
f 91/17/9 89/19/9 90/20/9 92/18/9
f 89/19/10 85/15/10 86/14/10 90/20/10
f 83/8/4 90/20/4 86/21/4 81/10/4
f 81/1/1 86/22/1 88/23/1 82/4/1
f 91/17/6 87/16/6 85/15/6 89/19/6
f 82/4/2 88/23/2 92/18/2 84/6/2
f 84/6/3 92/18/3 90/20/3 83/8/3
f 94/11/5 96/6/5 95/8/5 93/12/5
f 97/15/7 99/16/7 100/13/7 98/14/7
f 99/16/8 103/17/8 104/18/8 100/13/8
f 103/17/9 101/19/9 102/20/9 104/18/9
f 101/19/10 97/15/10 98/14/10 102/20/10
f 95/8/4 102/20/4 98/21/4 93/10/4
f 93/1/1 98/22/1 100/23/1 94/4/1
f 103/17/6 99/16/6 97/15/6 101/19/6
f 94/4/2 100/23/2 104/18/2 96/6/2
f 96/6/3 104/18/3 102/20/3 95/8/3
f 106/11/5 108/6/5 107/8/5 105/12/5
f 109/15/7 111/16/7 112/13/7 110/14/7
f 111/16/8 115/17/8 116/18/8 112/13/8
f 115/17/9 113/19/9 114/20/9 116/18/9
f 113/19/10 109/15/10 110/14/10 114/20/10
f 107/8/4 114/20/4 110/21/4 105/10/4
f 105/1/1 110/22/1 112/23/1 106/4/1
f 115/17/6 111/16/6 109/15/6 113/19/6
f 106/4/2 112/23/2 116/18/2 108/6/2
f 108/6/3 116/18/3 114/20/3 107/8/3
f 118/11/5 120/6/5 119/8/5 117/12/5
f 121/15/7 123/16/7 124/13/7 122/14/7
f 123/16/8 127/17/8 128/18/8 124/13/8
f 127/17/9 125/19/9 126/20/9 128/18/9
f 125/19/10 121/15/10 122/14/10 126/20/10
f 119/8/4 126/20/4 122/21/4 117/10/4
f 117/1/1 122/22/1 124/23/1 118/4/1
f 127/17/6 123/16/6 121/15/6 125/19/6
f 118/4/2 124/23/2 128/18/2 120/6/2
f 120/6/3 128/18/3 126/20/3 119/8/3
g street2-col_Concrete2
usemtl Concrete2
f 130/11/5 132/6/5 131/8/5 129/12/5
f 133/15/11 135/16/11 136/13/11 134/14/11
f 135/16/8 139/17/8 140/18/8 136/13/8
f 139/17/12 137/19/12 138/20/12 140/18/12
f 137/19/10 133/15/10 134/14/10 138/20/10
f 131/8/4 138/20/4 134/21/4 129/10/4
f 129/1/1 134/22/1 136/23/1 130/4/1
f 139/17/6 135/16/6 133/15/6 137/19/6
f 130/4/2 136/23/2 140/18/2 132/6/2
f 132/6/3 140/18/3 138/20/3 131/8/3
f 142/11/5 144/6/5 143/8/5 141/12/5
f 145/15/11 147/16/11 148/13/11 146/14/11
f 147/16/8 151/17/8 152/18/8 148/13/8
f 151/17/12 149/19/12 150/20/12 152/18/12
f 149/19/10 145/15/10 146/14/10 150/20/10
f 143/8/4 150/20/4 146/21/4 141/10/4
f 141/1/1 146/22/1 148/23/1 142/4/1
f 151/17/6 147/16/6 145/15/6 149/19/6
f 142/4/2 148/23/2 152/18/2 144/6/2
f 144/6/3 152/18/3 150/20/3 143/8/3
f 154/11/5 156/6/5 155/8/5 153/12/5
f 157/15/11 159/16/11 160/13/11 158/14/11
f 159/16/8 163/17/8 164/18/8 160/13/8
f 163/17/12 161/19/12 162/20/12 164/18/12
f 161/19/10 157/15/10 158/14/10 162/20/10
f 155/8/4 162/20/4 158/21/4 153/10/4
f 153/1/1 158/22/1 160/23/1 154/4/1
f 163/17/6 159/16/6 157/15/6 161/19/6
f 154/4/2 160/23/2 164/18/2 156/6/2
f 156/6/3 164/18/3 162/20/3 155/8/3
f 166/11/5 168/6/5 167/8/5 165/12/5
f 169/15/11 171/16/11 172/13/11 170/14/11
f 171/16/8 175/17/8 176/18/8 172/13/8
f 175/17/12 173/19/12 174/20/12 176/18/12
f 173/19/10 169/15/10 170/14/10 174/20/10
f 167/8/4 174/20/4 170/21/4 165/10/4
f 165/1/1 170/22/1 172/23/1 166/4/1
f 175/17/6 171/16/6 169/15/6 173/19/6
f 166/4/2 172/23/2 176/18/2 168/6/2
f 168/6/3 176/18/3 174/20/3 167/8/3
f 178/11/5 180/6/5 179/8/5 177/12/5
f 181/15/11 183/16/11 184/13/11 182/14/11
f 183/16/8 187/17/8 188/18/8 184/13/8
f 187/17/12 185/19/12 186/20/12 188/18/12
f 185/19/10 181/15/10 182/14/10 186/20/10
f 179/8/4 186/20/4 182/21/4 177/10/4
f 177/1/1 182/22/1 184/23/1 178/4/1
f 187/17/6 183/16/6 181/15/6 185/19/6
f 178/4/2 184/23/2 188/18/2 180/6/2
f 180/6/3 188/18/3 186/20/3 179/8/3
f 190/11/5 192/6/5 191/8/5 189/12/5
f 193/15/11 195/16/11 196/13/11 194/14/11
f 195/16/8 199/17/8 200/18/8 196/13/8
f 199/17/12 197/19/12 198/20/12 200/18/12
f 197/19/10 193/15/10 194/14/10 198/20/10
f 191/8/4 198/20/4 194/21/4 189/10/4
f 189/1/1 194/22/1 196/23/1 190/4/1
f 199/17/6 195/16/6 193/15/6 197/19/6
f 190/4/2 196/23/2 200/18/2 192/6/2
f 192/6/3 200/18/3 198/20/3 191/8/3
f 202/11/5 204/6/5 203/8/5 201/12/5
f 205/15/11 207/16/11 208/13/11 206/14/11
f 207/16/8 211/17/8 212/18/8 208/13/8
f 211/17/12 209/19/12 210/20/12 212/18/12
f 209/19/10 205/15/10 206/14/10 210/20/10
f 203/8/4 210/20/4 206/21/4 201/10/4
f 201/1/1 206/22/1 208/23/1 202/4/1
f 211/17/6 207/16/6 205/15/6 209/19/6
f 202/4/2 208/23/2 212/18/2 204/6/2
f 204/6/3 212/18/3 210/20/3 203/8/3
f 214/11/5 216/6/5 215/8/5 213/12/5
f 217/15/11 219/16/11 220/13/11 218/14/11
f 219/16/8 223/17/8 224/18/8 220/13/8
f 223/17/12 221/19/12 222/20/12 224/18/12
f 221/19/10 217/15/10 218/14/10 222/20/10
f 215/8/4 222/20/4 218/21/4 213/10/4
f 213/1/1 218/22/1 220/23/1 214/4/1
f 223/17/6 219/16/6 217/15/6 221/19/6
f 214/4/2 220/23/2 224/18/2 216/6/2
f 216/6/3 224/18/3 222/20/3 215/8/3
f 226/11/5 228/6/5 227/8/5 225/12/5
f 229/15/11 231/16/11 232/13/11 230/14/11
f 231/16/8 235/17/8 236/18/8 232/13/8
f 235/17/12 233/19/12 234/20/12 236/18/12
f 233/19/10 229/15/10 230/14/10 234/20/10
f 227/8/4 234/20/4 230/21/4 225/10/4
f 225/1/1 230/22/1 232/23/1 226/4/1
f 235/17/6 231/16/6 229/15/6 233/19/6
f 226/4/2 232/23/2 236/18/2 228/6/2
f 228/6/3 236/18/3 234/20/3 227/8/3
f 238/11/5 240/6/5 239/8/5 237/12/5
f 241/15/11 243/16/11 244/13/11 242/14/11
f 243/16/8 247/17/8 248/18/8 244/13/8
f 247/17/12 245/19/12 246/20/12 248/18/12
f 245/19/10 241/15/10 242/14/10 246/20/10
f 239/8/4 246/20/4 242/21/4 237/10/4
f 237/1/1 242/22/1 244/23/1 238/4/1
f 247/17/6 243/16/6 241/15/6 245/19/6
f 238/4/2 244/23/2 248/18/2 240/6/2
f 240/6/3 248/18/3 246/20/3 239/8/3
